<svg width="135" height="135" viewBox="0 0 135 135" fill="none" xmlns="http://www.w3.org/2000/svg">
<rect width="135" height="135" fill="white"/>
<path d="M51 10H10V25H51V10Z" fill="#333333"/>
<path d="M88 10H62V25H88V10Z" fill="#333333"/>
<path d="M125 10H99V25H125V10Z" fill="#333333"/>
<path d="M51 35H10V50H51V35Z" fill="#333333"/>
<path d="M88 35H62V50H88V35Z" fill="#333333"/>
<path d="M125 35H99V50H125V35Z" fill="#333333"/>
<path d="M10 60H65.1124C60.2928 64.0656 56.3901 69.1837 53.7587 75H10V60Z" fill="#333333"/>
<path d="M10 85H50.6597C50.2262 87.4346 50 89.9409 50 92.5C50 95.0591 50.2262 97.5654 50.6597 100H10V85Z" fill="#333333"/>
<path d="M10 110H53.7587C56.3901 115.816 60.2928 120.934 65.1124 125H10V110Z" fill="#333333"/>
<path fill-rule="evenodd" clip-rule="evenodd" d="M125 92.5C125 110.449 110.449 125 92.5 125C74.5507 125 60 110.449 60 92.5C60 74.5507 74.5507 60 92.5 60C110.449 60 125 74.5507 125 92.5ZM88.4375 68.125V96.9688H88.5127L88.4375 97.099L108.789 108.849L112.852 101.813L96.5625 92.408V68.125H88.4375Z" fill="#333333"/>
</svg>
